<svg width="100" height="50" viewBox="0 0 370.45454545454544 52.993979020552196" class="looka-1j8o68f"><defs id="SvgjsDefs1950"></defs><g id="SvgjsG1951" featurekey="symbolFeature-0" transform="matrix(0.7954545454545454,0,0,0.7954545454545454,0,-13.028749769384211)" fill="#006eff"><g xmlns="http://www.w3.org/2000/svg"><polygon points="4.635,41.6 1.515,72.756 0.334,76.951 3.023,47.644  "></polygon><polygon points="95.364,41.6 98.485,72.756 99.666,76.951 96.978,47.644  "></polygon><g><path d="M5.771,39.521l0.013-0.123C5.783,39.398,5.692,39.45,5.771,39.521z"></path><path d="M97.504,73.729c0,0,0.002,0.803-8.865,0.803c-10.384,0-13.146-5.213-26.337-5.213c-7.62,0-10.962,6.502-12.302,10.539    c-1.34-4.037-4.681-10.539-12.302-10.539c-13.19,0-15.954,5.213-26.336,5.213c-8.869,0-8.867-0.803-8.867-0.803L0,83h49.198h1.604    H100L97.504,73.729z"></path></g><path d="M94.217,39.398c0,0-0.494,0.137-1.615,0.28l0.714,14.399c0,0-8.124,6.782-28.73,10.482C51,67,50,76.57,50,76.57   c0.735-1.639,4.011-9.393,12.302-9.393c12.832,0,16.241,5.215,26.337,5.215c7.618,0,8.865-0.838,8.865-0.838L94.217,39.398z"></path><path d="M89.523,16.379c0,0-3.16,8.02-25.62,15.372c-6.56,2.147-9.938,5.35-11.681,8.027c-1.077,1.472-1.677,3.008-1.769,4.266   c-0.024,0.136-0.041,0.249-0.052,0.341H50.38L50,63.703l-0.38-19.318h-0.04c0-3.363-4.199-9.604-11.882-9.604   c-13.19,0-13.815,5.214-24.197,5.214c-6.297,0-7.537-0.3-7.73-0.474L2.496,71.555c0,0,1.247,0.838,8.867,0.838   c10.094,0,13.504-5.215,26.336-5.215c8.291,0,11.633,7.754,12.302,9.393c0,0,1.106-9.736,14.585-13.078   c20.32-5.041,26.592-11.554,26.592-11.554L89.523,16.379z"></path></g></g></svg>