<svg width="890.4999999999999" height="127.3871218394648" viewBox="0 0 370.45454545454544 52.993979020552196" class="looka-1j8o68f"><defs id="SvgjsDefs1550"></defs><g id="SvgjsG1551" featurekey="symbolFeature-0" transform="matrix(0.7954545454545454,0,0,0.7954545454545454,0,-13.028749769384211)" fill="#006eff"><g xmlns="http://www.w3.org/2000/svg"><polygon points="4.635,41.6 1.515,72.756 0.334,76.951 3.023,47.644  "></polygon><polygon points="95.364,41.6 98.485,72.756 99.666,76.951 96.978,47.644  "></polygon><g><path d="M5.771,39.521l0.013-0.123C5.783,39.398,5.692,39.45,5.771,39.521z"></path><path d="M97.504,73.729c0,0,0.002,0.803-8.865,0.803c-10.384,0-13.146-5.213-26.337-5.213c-7.62,0-10.962,6.502-12.302,10.539    c-1.34-4.037-4.681-10.539-12.302-10.539c-13.19,0-15.954,5.213-26.336,5.213c-8.869,0-8.867-0.803-8.867-0.803L0,83h49.198h1.604    H100L97.504,73.729z"></path></g><path d="M94.217,39.398c0,0-0.494,0.137-1.615,0.28l0.714,14.399c0,0-8.124,6.782-28.73,10.482C51,67,50,76.57,50,76.57   c0.735-1.639,4.011-9.393,12.302-9.393c12.832,0,16.241,5.215,26.337,5.215c7.618,0,8.865-0.838,8.865-0.838L94.217,39.398z"></path><path d="M89.523,16.379c0,0-3.16,8.02-25.62,15.372c-6.56,2.147-9.938,5.35-11.681,8.027c-1.077,1.472-1.677,3.008-1.769,4.266   c-0.024,0.136-0.041,0.249-0.052,0.341H50.38L50,63.703l-0.38-19.318h-0.04c0-3.363-4.199-9.604-11.882-9.604   c-13.19,0-13.815,5.214-24.197,5.214c-6.297,0-7.537-0.3-7.73-0.474L2.496,71.555c0,0,1.247,0.838,8.867,0.838   c10.094,0,13.504-5.215,26.336-5.215c8.291,0,11.633,7.754,12.302,9.393c0,0,1.106-9.736,14.585-13.078   c20.32-5.041,26.592-11.554,26.592-11.554L89.523,16.379z"></path></g></g><g id="SvgjsG1552" featurekey="nameFeature-0" transform="matrix(0.6985746196459951,0,0,0.6985746196459951,98.15576293085118,8.449448147849408)" fill="#006eff"><path d="M2.64 37.04 l0 -21.44 c0 -2 0.96 -3.12 3.48 -3.12 c14.92 0 19.12 9.92 19.12 16.04 c0 6.04 -3.88 11.48 -10.68 11.48 l-8.36 0 c-2.6 0 -3.56 -0.64 -3.56 -2.96 z M7.68 17.28 l0 17.92 l3.88 0 c5.96 0 8 -2 8 -6.32 c0 -6.48 -5.32 -11.6 -11.88 -11.6 z M29.562 27.560000000000002 l1.16 -12.4 c0.12 -1.36 0.76 -2.8 2.4 -2.8 c1.76 0 2.4 1.36 2.4 2.32 c0 5.28 -1.24 10.48 -1.24 15.76 c0 3.12 2.24 5.24 5.32 5.24 s5.32 -2.12 5.32 -5.24 c0 -5.28 -1.24 -10.48 -1.24 -15.76 c0 -0.96 0.64 -2.32 2.4 -2.32 c1.64 0 2.28 1.44 2.4 2.8 l1.16 12.4 c0.08 1.04 0.08 2.24 0.08 3.36 c0 5.56 -4.4 9.32 -10.12 9.32 s-10.12 -3.76 -10.12 -9.32 c0 -1.12 0 -2.32 0.08 -3.36 z M57.284000000000006 12.48 l11.2 0 c4.56 0 5.88 2.64 5.88 5.56 c0 2.72 -0.96 4.4 -3.04 6.04 c2.48 1.88 4.44 4.84 4.44 8.04 c0 4.28 -3.28 7.88 -7.76 7.88 l-9.44 0 c-2.64 0 -3.48 -0.8 -3.48 -2.72 l0 -22.08 c0 -1.52 0.84 -2.72 2.2 -2.72 z M60.12400000000001 24.560000000000002 l0 10.88 l4.92 0 c3.36 0 5.44 -0.8 5.44 -3.48 c0 -4.88 -6.32 -7.08 -10.36 -7.4 z M60.12400000000001 16.8 l0 3.76 c2.24 0 5.08 0.56 7.16 1.44 c1.28 -0.8 2.04 -1.76 2.04 -3.08 c0 -1.48 -0.92 -2.12 -3.56 -2.12 l-5.64 0 z M86.80600000000001 28.32 l-1.04 0 c-1.08 2.92 -1.68 6.76 -1.96 9.44 c-0.16 1.48 -1 2.36 -2.44 2.36 c-2.16 0 -2.6 -1.28 -2.6 -3.2 c0 -1.24 0.68 -8.44 5.92 -18.32 c2.28 -4.32 3.56 -6.36 6.36 -6.36 c2.32 0 3.68 2.04 5.96 6.36 c5.24 9.88 6.32 17.08 6.32 18.32 c0 2.08 -1 3.2 -2.4 3.2 c-2 0 -2.48 -1.16 -2.88 -3.32 c-1.04 -5.76 -6.76 -8.48 -11.24 -8.48 z M86.96600000000001 24.32 l0.52 0 c1.96 0 5.4 0.56 8.04 2.72 l0.08 -0.08 c-1.2 -3.44 -2.72 -6.8 -4.68 -9.92 c-1.6 2.4 -2.92 4.8 -3.96 7.28 z M113.20800000000001 15.079999999999998 l0 22.32 c0 1.52 -0.8 2.72 -2.52 2.72 s-2.52 -1.2 -2.52 -2.72 l0 -22.32 c0 -1.52 0.8 -2.72 2.52 -2.72 s2.52 1.2 2.52 2.72 z M132.65200000000002 37.4 l0 -22.76 c0 -1.28 0.8 -2.16 2.52 -2.16 l10.6 0 c4.16 0 6.32 2.32 6.32 5.68 c0 5.2 -4.4 8.24 -14.4 10.96 l0 8.28 c0 1.52 -0.8 2.72 -2.52 2.72 s-2.52 -1.2 -2.52 -2.72 z M137.69200000000004 16.8 l0 7.52 c2.64 -0.56 9.36 -3.36 9.36 -5.8 c0 -1.08 -0.56 -1.72 -3.52 -1.72 l-5.84 0 z M160.41400000000004 25.16 l0 12.28 c0 1.48 -0.8 2.68 -2.52 2.68 s-2.52 -1.2 -2.52 -2.68 l0 -22.28 c0 -1.48 0.8 -2.68 2.52 -2.68 l8.56 0 c6.08 0 8.4 1.76 8.4 5.68 c0 2.72 -1.52 4.88 -3.64 6.28 c3.44 3.12 5.28 8.24 5.28 12.08 c0 1.84 -0.36 3.6 -2.36 3.6 c-2.2 0 -2.64 -1.48 -2.68 -3.36 c-0.12 -6.04 -3.4 -11.6 -11.04 -11.6 z M160.41400000000004 17.04 l0 3.8 c2.2 0 3.24 0.24 4.24 0.44 l2.44 0.64 c1.08 0 2.72 -1.8 2.72 -3 c0 -1.28 -1 -1.88 -2.72 -1.88 l-6.68 0 z M186.05600000000004 17.04 l0 3.44 l9.6 0 c1.36 0 2.44 0.72 2.44 2.28 s-1.08 2.28 -2.44 2.28 l-9.6 0 l0 10.4 l10 0 c1.36 0 2.44 0.72 2.44 2.28 s-1.08 2.28 -2.44 2.28 l-11.8 0 c-2.64 0 -3.48 -1.36 -3.48 -3.44 l0 -21.36 c0 -1.52 0.84 -2.72 2.2 -2.72 l13.08 0 c1.36 0 2.44 0.72 2.44 2.28 s-1.08 2.28 -2.44 2.28 l-10 0 z M203.73800000000006 37.4 l0 -22.76 c0 -1.28 0.8 -2.16 2.52 -2.16 l10.6 0 c4.16 0 6.32 2.32 6.32 5.68 c0 5.2 -4.4 8.24 -14.4 10.96 l0 8.28 c0 1.52 -0.8 2.72 -2.52 2.72 s-2.52 -1.2 -2.52 -2.72 z M208.77800000000008 16.8 l0 7.52 c2.64 -0.56 9.36 -3.36 9.36 -5.8 c0 -1.08 -0.56 -1.72 -3.52 -1.72 l-5.84 0 z M254.82200000000006 17.28 l-9.24 0 c-1.24 0 -1.92 0.56 -1.92 1.6 c0 3.64 16.12 0.28 16.12 11.44 c0 5.04 -3.8 9.68 -10.64 9.68 l-8.6 0 c-1.44 0 -2.6 -0.76 -2.6 -2.4 s1.16 -2.4 2.6 -2.4 l6.56 0 c5.2 0 7.4 -1.28 7.4 -4.68 c0 -7.32 -16.12 -1.48 -16.12 -11.56 c0 -4.16 3.16 -6.48 8.16 -6.48 l8.28 0 c1.44 0 2.6 0.76 2.6 2.4 s-1.16 2.4 -2.6 2.4 z M282.66400000000004 17.28 l-7.44 0 c-4.32 0 -5.8 2.76 -5.8 6.88 c0 5.12 4.44 11.04 12.88 11.04 c2.28 0 3.24 1.04 3.24 2.4 c0 1.92 -1.48 2.64 -4.24 2.64 c-7.84 0 -17.56 -5.28 -17.56 -16.4 c0 -6.88 4.28 -11.36 10.04 -11.36 l8.88 0 c1.44 0 2.6 0.76 2.6 2.4 s-1.16 2.4 -2.6 2.4 z M294.74600000000004 20.88 l9.28 0 l0 -5.8 c0 -1.52 0.8 -2.72 2.52 -2.72 s2.52 1.2 2.52 2.72 l0 22.32 c0 1.52 -0.8 2.72 -2.52 2.72 s-2.52 -1.2 -2.52 -2.72 l0 -12.2 l-9.28 0 l0 12.2 c0 1.52 -0.8 2.72 -2.52 2.72 s-2.52 -1.2 -2.52 -2.72 l0 -22.32 c0 -1.52 0.8 -2.72 2.52 -2.72 s2.52 1.2 2.52 2.72 l0 5.8 z M339.788 26.240000000000002 c0 8.96 -6.16 14 -13 14 s-13 -5.04 -13 -14 s6.16 -14 13 -14 s13 5.04 13 14 z M334.108 26.240000000000002 c0 -5.28 -2.96 -9.44 -7.32 -9.44 s-7.32 4.16 -7.32 9.44 s2.96 9.44 7.32 9.44 s7.32 -4.16 7.32 -9.44 z M369.39 26.240000000000002 c0 8.96 -6.16 14 -13 14 s-13 -5.04 -13 -14 s6.16 -14 13 -14 s13 5.04 13 14 z M363.71 26.240000000000002 c0 -5.28 -2.96 -9.44 -7.32 -9.44 s-7.32 4.16 -7.32 9.44 s2.96 9.44 7.32 9.44 s7.32 -4.16 7.32 -9.44 z M374.43199999999996 36.56 l0 -21.48 c0 -1.52 0.84 -2.72 2.52 -2.72 s2.52 1.2 2.52 2.72 l0 20.12 l7.72 0 c1.44 0 2.6 0.76 2.6 2.4 s-1.16 2.4 -2.6 2.4 l-9.28 0 c-2.64 0 -3.48 -1.36 -3.48 -3.44 z"></path></g></svg>